<svg xmlns="http://www.w3.org/2000/svg" xmlns:xlink="http://www.w3.org/1999/xlink" viewBox="0 0 47.28 50.6"><defs><style>.cls-1{fill:none;}.cls-2{clip-path:url(#clip-path);}.cls-3{fill:url(#Degradado_sin_nombre);}.cls-4{clip-path:url(#clip-path-2);}.cls-5{fill:url(#Degradado_sin_nombre-2);}.cls-6{clip-path:url(#clip-path-3);}.cls-7{fill:url(#Degradado_sin_nombre-3);}</style><clipPath id="clip-path" transform="translate(0 0)"><path class="cls-1" d="M0,46.05a4.49,4.49,0,0,0,4.48,4.49l38.32.06a4.49,4.49,0,0,0,0-9L4.48,41.57A4.49,4.49,0,0,0,0,46.05"/></clipPath><linearGradient id="Degradado_sin_nombre" x1="-995.75" y1="6069.55" x2="-994.75" y2="6069.55" gradientTransform="matrix(-47.28, 0, 0, 47.28, -47031.52, -286920.27)" gradientUnits="userSpaceOnUse"><stop offset="0" stop-color="#65d4b0"/><stop offset="0.57" stop-color="#4db8cd"/><stop offset="1" stop-color="#39a0e6"/></linearGradient><clipPath id="clip-path-2" transform="translate(0 0)"><path class="cls-1" d="M0,25.27a4.49,4.49,0,0,0,4.48,4.48l38.32.06a4.49,4.49,0,0,0,0-9L4.48,20.78A4.49,4.49,0,0,0,0,25.27"/></clipPath><linearGradient id="Degradado_sin_nombre-2" x1="-995.75" y1="6069.55" x2="-994.75" y2="6069.55" gradientTransform="matrix(-47.28, 0, 0, 47.28, -47031.52, -286941.05)" xlink:href="#Degradado_sin_nombre"/><clipPath id="clip-path-3" transform="translate(0 0)"><path class="cls-1" d="M0,4.48A4.49,4.49,0,0,0,4.48,9L42.8,9a4.49,4.49,0,0,0,0-9L4.48,0A4.49,4.49,0,0,0,0,4.48"/></clipPath><linearGradient id="Degradado_sin_nombre-3" x1="-995.75" y1="6069.55" x2="-994.75" y2="6069.55" gradientTransform="matrix(-47.28, 0, 0, 47.28, -47031.52, -286961.84)" xlink:href="#Degradado_sin_nombre"/></defs><g id="Capa_2" data-name="Capa 2"><g id="Capa_1-2" data-name="Capa 1"><g class="cls-2"><rect class="cls-3" y="41.57" width="47.28" height="9.03"/></g><g class="cls-4"><rect class="cls-5" y="20.78" width="47.28" height="9.03"/></g><g class="cls-6"><rect class="cls-7" width="47.28" height="9.03"/></g></g></g></svg>